<?xml version="1.0" standalone="no"?><!DOCTYPE svg PUBLIC "-//W3C//DTD SVG 1.1//EN"   "http://www.w3.org/Graphics/SVG/1.1/DTD/svg11.dtd"><svg width="864pt" height="864pt" viewBox="0 0 864 864" version="1.1"    xmlns="http://www.w3.org/2000/svg" xmlns:xlink="http://www.w3.org/1999/xlink">  <defs>  </defs>   <path id="Path0" stroke-width="0.3" stroke="#000000" stroke-opacity="1" fill="none" fill-opacity="0" stroke-linecap="butt" stroke-linejoin="mitre" d="M80.5,89.5 C80.5,89.5 80.5,123.6 80.5,123.6 80.5,123.6 92.3,123.6 92.3,123.6 92.3,123.6 92.3,123.6 92.3,123.6 92.3,123.6 112.7,123.6 112.7,123.6 112.7,123.6 112.7,123.6 112.7,123.6 112.7,123.6 168.1,123.6 168.1,123.6 168.1,123.5 168,123.5 168,123.4 168,122 174.6,120.8 182.6,120.8 190.7,120.8 197.2,122 197.2,123.4 197.2,123.5 197.2,123.5 197.1,123.6 197.1,123.6 222.6,123.6 222.6,123.6 222.6,123.5 222.6,123.5 222.6,123.4 222.6,122 229.1,120.8 237.2,120.8 245.2,120.8 251.7,122 251.7,123.4 251.7,123.5 251.7,123.5 251.7,123.6 251.7,123.6 277.2,123.6 277.2,123.6 277.2,123.5 277.2,123.5 277.2,123.4 277.2,122 283.7,120.8 291.8,120.8 299.8,120.8 306.3,122 306.3,123.4 306.3,123.5 306.3,123.5 306.3,123.6 306.3,123.6 331.8,123.6 331.8,123.6 331.8,123.5 331.8,123.5 331.8,123.4 331.8,122 338.3,120.8 346.3,120.8 354.4,120.8 360.9,122 360.9,123.4 360.9,123.5 360.9,123.5 360.9,123.6 360.9,123.6 386.4,123.6 386.4,123.6 386.3,123.5 386.3,123.5 386.3,123.4 386.3,122 392.9,120.8 400.9,120.8 408.9,120.8 415.5,122 415.5,123.4 415.5,123.5 415.4,123.5 415.4,123.6 415.4,123.6 440.9,123.6 440.9,123.6 440.9,123.5 440.9,123.5 440.9,123.4 440.9,122 447.4,120.8 455.5,120.8 463.5,120.8 470,122 470,123.4 470,123.5 470,123.5 470,123.6 470,123.6 495.5,123.6 495.5,123.6 495.5,123.5 495.5,123.5 495.5,123.4 495.5,122 502,120.8 510,120.8 518.1,120.8 524.6,122 524.6,123.4 524.6,123.5 524.6,123.5 524.6,123.6 524.6,123.6 550.1,123.6 550.1,123.6 550.1,123.5 550.1,123.5 550.1,123.4 550.1,122 556.6,120.8 564.6,120.8 572.7,120.8 579.2,122 579.2,123.4 579.2,123.5 579.2,123.5 579.1,123.6 579.1,123.6 604.7,123.6 604.7,123.6 604.6,123.5 604.6,123.5 604.6,123.4 604.6,122 611.2,120.8 619.2,120.8 627.2,120.8 633.8,122 633.8,123.4 633.8,123.5 633.7,123.5 633.7,123.6 633.7,123.6 659.2,123.6 659.2,123.6 659.2,123.5 659.2,123.5 659.2,123.4 659.2,122 665.7,120.8 673.8,120.8 681.8,120.8 688.3,122 688.3,123.4 688.3,123.5 688.3,123.5 688.3,123.6 688.3,123.6 717.6,123.6 717.6,123.6 717.6,123.6 717.6,89.5 717.6,89.5 717.6,89.5 703.5,89.5 703.5,89.5 703.5,89.5 703.5,106.5 703.5,106.5 703.5,106.5 698.2,106.5 698.2,106.5 698.2,106.5 698.2,89.5 698.2,89.5 698.2,89.5 648.9,89.5 648.9,89.5 648.9,89.5 648.9,106.5 648.9,106.5 648.9,106.5 643.6,106.5 643.6,106.5 643.6,106.5 643.6,89.5 643.6,89.5 643.6,89.5 594.4,89.5 594.4,89.5 594.4,89.5 594.4,106.5 594.4,106.5 594.4,106.5 589.1,106.5 589.1,106.5 589.1,106.5 589.1,89.5 589.1,89.5 589.1,89.5 539.8,89.5 539.8,89.5 539.8,89.5 539.8,106.5 539.8,106.5 539.8,106.5 534.5,106.5 534.5,106.5 534.5,106.5 534.5,89.5 534.5,89.5 534.5,89.5 485.2,89.5 485.2,89.5 485.2,89.5 485.2,106.5 485.2,106.5 485.2,106.5 479.9,106.5 479.9,106.5 479.9,106.5 479.9,89.5 479.9,89.5 479.9,89.5 430.7,89.5 430.7,89.5 430.7,89.5 430.7,106.5 430.7,106.5 430.7,106.5 425.3,106.5 425.3,106.5 425.3,106.5 425.3,89.5 425.3,89.5 425.3,89.5 376.1,89.5 376.1,89.5 376.1,89.5 376.1,106.5 376.1,106.5 376.1,106.5 370.8,106.5 370.8,106.5 370.8,106.5 370.8,89.5 370.8,89.5 370.8,89.5 321.5,89.5 321.5,89.5 321.5,89.5 321.5,106.5 321.5,106.5 321.5,106.5 316.2,106.5 316.2,106.5 316.2,106.5 316.2,89.5 316.2,89.5 316.2,89.5 266.9,89.5 266.9,89.5 266.9,89.5 266.9,106.5 266.9,106.5 266.9,106.5 261.6,106.5 261.6,106.5 261.6,106.5 261.6,89.5 261.6,89.5 261.6,89.5 212.4,89.5 212.4,89.5 212.4,89.5 212.4,106.5 212.4,106.5 212.4,106.5 207.1,106.5 207.1,106.5 207.1,106.5 207.1,89.5 207.1,89.5 207.1,89.5 157.8,89.5 157.8,89.5 157.8,89.5 157.8,106.5 157.8,106.5 157.8,106.5 152.5,106.5 152.5,106.5 152.5,106.5 152.5,89.5 152.5,89.5 152.5,89.5 115.6,89.5 115.6,89.5 115.6,89.5 112.7,89.5 112.7,89.5 112.7,89.5 95,89.5 95,89.5 95,89.5 95,89.5 95,89.5 95,89.5 80.5,89.5 80.5,89.5 Z " />
   <path id="Path1" stroke-width="0.3" stroke="#000000" stroke-opacity="1" fill="none" fill-opacity="0" stroke-linecap="butt" stroke-linejoin="mitre" d="M83.8,306.5 C83.8,306.5 83.8,340.6 83.8,340.6 83.8,340.6 95.6,340.6 95.6,340.6 95.6,340.6 95.6,340.7 95.6,340.7 95.6,340.7 115.9,340.7 115.9,340.7 115.9,340.7 115.9,340.6 115.9,340.6 115.9,340.6 171.3,340.6 171.3,340.6 171.3,340.6 171.3,340.5 171.3,340.5 171.3,339 177.8,337.8 185.8,337.8 193.9,337.8 200.4,339 200.4,340.5 200.4,340.5 200.4,340.6 200.4,340.6 200.4,340.6 225.9,340.6 225.9,340.6 225.9,340.6 225.9,340.5 225.9,340.5 225.9,339 232.4,337.8 240.4,337.8 248.5,337.8 255,339 255,340.5 255,340.5 255,340.6 254.9,340.6 254.9,340.6 280.5,340.6 280.5,340.6 280.4,340.6 280.4,340.5 280.4,340.5 280.4,339 287,337.8 295,337.8 303,337.8 309.6,339 309.6,340.5 309.6,340.5 309.5,340.6 309.5,340.6 309.5,340.6 335,340.6 335,340.6 335,340.6 335,340.5 335,340.5 335,339 341.5,337.8 349.6,337.8 357.6,337.8 364.1,339 364.1,340.5 364.1,340.5 364.1,340.6 364.1,340.6 364.1,340.6 389.6,340.6 389.6,340.6 389.6,340.6 389.6,340.5 389.6,340.5 389.6,339 396.1,337.8 404.1,337.8 412.2,337.8 418.7,339 418.7,340.5 418.7,340.5 418.7,340.6 418.7,340.6 418.7,340.6 444.2,340.6 444.2,340.6 444.2,340.6 444.2,340.5 444.1,340.5 444.2,339 450.7,337.8 458.7,337.8 466.8,337.8 473.3,339 473.3,340.5 473.3,340.5 473.3,340.6 473.2,340.6 473.2,340.6 498.7,340.6 498.7,340.6 498.7,340.6 498.7,340.5 498.7,340.5 498.7,339 505.2,337.8 513.3,337.8 521.3,337.8 527.9,339 527.9,340.5 527.8,340.5 527.8,340.6 527.8,340.6 527.8,340.6 553.3,340.6 553.3,340.6 553.3,340.6 553.3,340.5 553.3,340.5 553.3,339 559.8,337.8 567.9,337.8 575.9,337.8 582.4,339 582.4,340.5 582.4,340.5 582.4,340.6 582.4,340.6 582.4,340.6 607.9,340.6 607.9,340.6 607.9,340.6 607.9,340.5 607.9,340.5 607.9,339 614.4,337.8 622.4,337.8 630.5,337.8 637,339 637,340.5 637,340.5 637,340.6 637,340.6 637,340.6 662.5,340.6 662.5,340.6 662.5,340.6 662.4,340.5 662.4,340.5 662.4,339 669,337.8 677,337.8 685.1,337.8 691.6,339 691.6,340.5 691.6,340.5 691.6,340.6 691.5,340.6 691.5,340.6 720.8,340.6 720.8,340.6 720.8,340.6 720.8,306.6 720.8,306.6 720.8,306.6 706.8,306.6 706.8,306.6 706.8,306.6 706.8,323.6 706.8,323.6 706.8,323.6 701.5,323.6 701.5,323.6 701.5,323.6 701.5,306.6 701.5,306.6 701.5,306.6 652.2,306.6 652.2,306.6 652.2,306.6 652.2,323.6 652.2,323.6 652.2,323.6 646.9,323.6 646.9,323.6 646.9,323.6 646.9,306.6 646.9,306.6 646.9,306.6 597.6,306.6 597.6,306.6 597.6,306.6 597.6,323.6 597.6,323.6 597.6,323.6 592.3,323.6 592.3,323.6 592.3,323.6 592.3,306.6 592.3,306.6 592.3,306.6 543,306.6 543,306.6 543,306.6 543,323.6 543,323.6 543,323.6 537.7,323.6 537.7,323.6 537.7,323.6 537.7,306.6 537.7,306.6 537.7,306.6 488.5,306.6 488.5,306.6 488.5,306.6 488.5,323.6 488.5,323.6 488.5,323.6 483.2,323.6 483.2,323.6 483.2,323.6 483.2,306.6 483.2,306.6 483.2,306.6 433.9,306.6 433.9,306.6 433.9,306.6 433.9,323.6 433.9,323.6 433.9,323.6 428.6,323.6 428.6,323.6 428.6,323.6 428.6,306.6 428.6,306.6 428.6,306.6 379.3,306.6 379.3,306.6 379.3,306.6 379.3,323.6 379.3,323.6 379.3,323.6 374,323.6 374,323.6 374,323.6 374,306.6 374,306.6 374,306.6 324.7,306.6 324.7,306.6 324.7,306.6 324.7,323.6 324.7,323.6 324.7,323.6 319.4,323.6 319.4,323.6 319.4,323.6 319.4,306.6 319.4,306.6 319.4,306.6 270.2,306.6 270.2,306.6 270.2,306.6 270.2,323.6 270.2,323.6 270.2,323.6 264.9,323.6 264.9,323.6 264.9,323.6 264.9,306.6 264.9,306.6 264.9,306.6 215.6,306.6 215.6,306.6 215.6,306.6 215.6,323.6 215.6,323.6 215.6,323.6 210.3,323.6 210.3,323.6 210.3,323.6 210.3,306.6 210.3,306.6 210.3,306.6 161,306.6 161,306.6 161,306.6 161,323.6 161,323.6 161,323.6 155.7,323.6 155.7,323.6 155.7,323.6 155.7,306.6 155.7,306.6 155.7,306.6 118.8,306.6 118.8,306.6 118.8,306.6 115.9,306.5 115.9,306.5 115.9,306.5 98.2,306.5 98.2,306.5 98.2,306.5 98.2,306.5 98.2,306.5 98.2,306.5 83.8,306.5 83.8,306.5 Z " />
   <path id="Path2" stroke-width="0.3" stroke="#000000" stroke-opacity="1" fill="none" fill-opacity="0" stroke-linecap="butt" stroke-linejoin="mitre" d="M78.9,164 C78.9,164 78.9,198.1 78.9,198.1 78.9,198.1 90.7,198.1 90.7,198.1 90.7,198.1 90.7,198.1 90.7,198.1 90.7,198.1 111.1,198.1 111.1,198.1 111.1,198.1 111.1,198.1 111.1,198.1 111.1,198.1 166.4,198.1 166.4,198.1 166.4,198.1 166.4,198 166.4,198 166.4,196.5 172.9,195.3 181,195.3 189,195.3 195.6,196.5 195.6,198 195.5,198 195.5,198.1 195.5,198.1 195.5,198.1 221,198.1 221,198.1 221,198.1 221,198 221,198 221,196.5 227.5,195.3 235.6,195.3 243.6,195.3 250.1,196.5 250.1,198 250.1,198 250.1,198.1 250.1,198.1 250.1,198.1 275.6,198.1 275.6,198.1 275.6,198.1 275.6,198 275.6,198 275.6,196.5 282.1,195.3 290.1,195.3 298.2,195.3 304.7,196.5 304.7,198 304.7,198 304.7,198.1 304.7,198.1 304.7,198.1 330.2,198.1 330.2,198.1 330.2,198.1 330.1,198 330.1,198 330.1,196.5 336.7,195.3 344.7,195.3 352.8,195.3 359.3,196.5 359.3,198 359.3,198 359.3,198.1 359.2,198.1 359.2,198.1 384.7,198.1 384.7,198.1 384.7,198.1 384.7,198 384.7,198 384.7,196.5 391.2,195.3 399.3,195.3 407.3,195.3 413.8,196.5 413.8,198 413.8,198 413.8,198.1 413.8,198.1 413.8,198.1 439.3,198.1 439.3,198.1 439.3,198.1 439.3,198 439.3,198 439.3,196.5 445.8,195.3 453.9,195.3 461.9,195.3 468.4,196.5 468.4,198 468.4,198 468.4,198.1 468.4,198.1 468.4,198.1 493.9,198.1 493.9,198.1 493.9,198.1 493.9,198 493.9,198 493.9,196.5 500.4,195.3 508.4,195.3 516.5,195.3 523,196.5 523,198 523,198 523,198.1 523,198.1 523,198.1 548.5,198.1 548.5,198.1 548.4,198.1 548.4,198 548.4,198 548.4,196.5 555,195.3 563,195.3 571,195.3 577.6,196.5 577.6,198 577.6,198 577.5,198.1 577.5,198.1 577.5,198.1 603,198.1 603,198.1 603,198.1 603,198 603,198 603,196.5 609.5,195.3 617.6,195.3 625.6,195.3 632.1,196.5 632.1,198 632.1,198 632.1,198.1 632.1,198.1 632.1,198.1 657.6,198.1 657.6,198.1 657.6,198.1 657.6,198 657.6,198 657.6,196.5 664.1,195.3 672.1,195.3 680.2,195.3 686.7,196.5 686.7,198 686.7,198 686.7,198.1 686.7,198.1 686.7,198.1 715.9,198.1 715.9,198.1 715.9,198.1 715.9,164 715.9,164 715.9,164 701.9,164 701.9,164 701.9,164 701.9,181 701.9,181 701.9,181 696.6,181 696.6,181 696.6,181 696.6,164 696.6,164 696.6,164 647.3,164 647.3,164 647.3,164 647.3,181 647.3,181 647.3,181 642,181 642,181 642,181 642,164 642,164 642,164 592.8,164 592.8,164 592.8,164 592.8,181 592.8,181 592.8,181 587.4,181 587.4,181 587.4,181 587.4,164 587.4,164 587.4,164 538.2,164 538.2,164 538.2,164 538.2,181 538.2,181 538.2,181 532.9,181 532.9,181 532.9,181 532.9,164 532.9,164 532.9,164 483.6,164 483.6,164 483.6,164 483.6,181 483.6,181 483.6,181 478.3,181 478.3,181 478.3,181 478.3,164 478.3,164 478.3,164 429,164 429,164 429,164 429,181 429,181 429,181 423.7,181 423.7,181 423.7,181 423.7,164 423.7,164 423.7,164 374.5,164 374.5,164 374.5,164 374.5,181 374.5,181 374.5,181 369.2,181 369.2,181 369.2,181 369.2,164 369.2,164 369.2,164 319.9,164 319.9,164 319.9,164 319.9,181 319.9,181 319.9,181 314.6,181 314.6,181 314.6,181 314.6,164 314.6,164 314.6,164 265.3,164 265.3,164 265.3,164 265.3,181 265.3,181 265.3,181 260,181 260,181 260,181 260,164 260,164 260,164 210.7,164 210.7,164 210.7,164 210.7,181 210.7,181 210.7,181 205.4,181 205.4,181 205.4,181 205.4,164 205.4,164 205.4,164 156.2,164 156.2,164 156.2,164 156.2,181 156.2,181 156.2,181 150.9,181 150.9,181 150.9,181 150.9,164 150.9,164 150.9,164 114,164 114,164 114,164 111.1,164 111.1,164 111.1,164 93.4,164 93.4,164 93.4,164 93.4,164 93.4,164 93.4,164 78.9,164 78.9,164 Z " />
   <path id="Path3" stroke-width="0.3" stroke="#000000" stroke-opacity="1" fill="none" fill-opacity="0" stroke-linecap="butt" stroke-linejoin="mitre" d="M80.5,377.8 C80.5,377.8 80.5,411.9 80.5,411.9 80.5,411.9 92.3,411.9 92.3,411.9 92.3,411.9 92.3,411.9 92.3,411.9 92.3,411.9 112.7,411.9 112.7,411.9 112.7,411.9 112.7,411.9 112.7,411.9 112.7,411.9 168.1,411.9 168.1,411.9 168.1,411.9 168,411.8 168,411.8 168,410.3 174.6,409.1 182.6,409.1 190.7,409.1 197.2,410.3 197.2,411.8 197.2,411.8 197.2,411.9 197.1,411.9 197.1,411.9 222.6,411.9 222.6,411.9 222.6,411.9 222.6,411.8 222.6,411.8 222.6,410.3 229.1,409.1 237.2,409.1 245.2,409.1 251.7,410.3 251.7,411.8 251.7,411.8 251.7,411.9 251.7,411.9 251.7,411.9 277.2,411.9 277.2,411.9 277.2,411.9 277.2,411.8 277.2,411.8 277.2,410.3 283.7,409.1 291.8,409.1 299.8,409.1 306.3,410.3 306.3,411.8 306.3,411.8 306.3,411.9 306.3,411.9 306.3,411.9 331.8,411.9 331.8,411.9 331.8,411.9 331.8,411.8 331.8,411.8 331.8,410.3 338.3,409.1 346.3,409.1 354.4,409.1 360.9,410.3 360.9,411.8 360.9,411.8 360.9,411.9 360.9,411.9 360.9,411.9 386.4,411.9 386.4,411.9 386.3,411.9 386.3,411.8 386.3,411.8 386.3,410.3 392.9,409.1 400.9,409.1 408.9,409.1 415.5,410.3 415.5,411.8 415.5,411.8 415.4,411.9 415.4,411.9 415.4,411.9 440.9,411.9 440.9,411.9 440.9,411.9 440.9,411.8 440.9,411.8 440.9,410.3 447.4,409.1 455.5,409.1 463.5,409.1 470,410.3 470,411.8 470,411.8 470,411.9 470,411.9 470,411.9 495.5,411.9 495.5,411.9 495.5,411.9 495.5,411.8 495.5,411.8 495.5,410.3 502,409.1 510,409.1 518.1,409.1 524.6,410.3 524.6,411.8 524.6,411.8 524.6,411.9 524.6,411.9 524.6,411.9 550.1,411.9 550.1,411.9 550.1,411.9 550.1,411.8 550.1,411.8 550.1,410.3 556.6,409.1 564.6,409.1 572.7,409.1 579.2,410.3 579.2,411.8 579.2,411.8 579.2,411.9 579.1,411.9 579.1,411.9 604.7,411.9 604.7,411.9 604.6,411.9 604.6,411.8 604.6,411.8 604.6,410.3 611.2,409.1 619.2,409.1 627.2,409.1 633.8,410.3 633.8,411.8 633.8,411.8 633.7,411.9 633.7,411.9 633.7,411.9 659.2,411.9 659.2,411.9 659.2,411.9 659.2,411.8 659.2,411.8 659.2,410.3 665.7,409.1 673.8,409.1 681.8,409.1 688.3,410.3 688.3,411.8 688.3,411.8 688.3,411.9 688.3,411.9 688.3,411.9 717.6,411.9 717.6,411.9 717.6,411.9 717.6,377.9 717.6,377.9 717.6,377.9 703.5,377.9 703.5,377.9 703.5,377.9 703.5,394.8 703.5,394.8 703.5,394.8 698.2,394.8 698.2,394.8 698.2,394.8 698.2,377.9 698.2,377.9 698.2,377.9 648.9,377.9 648.9,377.9 648.9,377.9 648.9,394.8 648.9,394.8 648.9,394.8 643.6,394.8 643.6,394.8 643.6,394.8 643.6,377.9 643.6,377.9 643.6,377.9 594.4,377.9 594.4,377.9 594.4,377.9 594.4,394.8 594.4,394.8 594.4,394.8 589.1,394.8 589.1,394.8 589.1,394.8 589.1,377.9 589.1,377.9 589.1,377.9 539.8,377.9 539.8,377.9 539.8,377.9 539.8,394.8 539.8,394.8 539.8,394.8 534.5,394.8 534.5,394.8 534.5,394.8 534.5,377.9 534.5,377.9 534.5,377.9 485.2,377.9 485.2,377.9 485.2,377.9 485.2,394.8 485.2,394.8 485.2,394.8 479.9,394.8 479.9,394.8 479.9,394.8 479.9,377.9 479.9,377.9 479.9,377.9 430.7,377.9 430.7,377.9 430.7,377.9 430.7,394.8 430.7,394.8 430.7,394.8 425.3,394.8 425.3,394.8 425.3,394.8 425.3,377.9 425.3,377.9 425.3,377.9 376.1,377.9 376.1,377.9 376.1,377.9 376.1,394.8 376.1,394.8 376.1,394.8 370.8,394.8 370.8,394.8 370.8,394.8 370.8,377.9 370.8,377.9 370.8,377.9 321.5,377.9 321.5,377.9 321.5,377.9 321.5,394.8 321.5,394.8 321.5,394.8 316.2,394.8 316.2,394.8 316.2,394.8 316.2,377.9 316.2,377.9 316.2,377.9 266.9,377.9 266.9,377.9 266.9,377.9 266.9,394.8 266.9,394.8 266.9,394.8 261.6,394.8 261.6,394.8 261.6,394.8 261.6,377.9 261.6,377.9 261.6,377.9 212.4,377.9 212.4,377.9 212.4,377.9 212.4,394.8 212.4,394.8 212.4,394.8 207.1,394.8 207.1,394.8 207.1,394.8 207.1,377.9 207.1,377.9 207.1,377.9 157.8,377.9 157.8,377.9 157.8,377.9 157.8,394.8 157.8,394.8 157.8,394.8 152.5,394.8 152.5,394.8 152.5,394.8 152.5,377.9 152.5,377.9 152.5,377.9 115.6,377.9 115.6,377.9 115.6,377.9 112.7,377.8 112.7,377.8 112.7,377.8 95,377.8 95,377.8 95,377.8 95,377.8 95,377.8 95,377.8 80.5,377.8 80.5,377.8 Z " />
   <path id="Path4" stroke-width="0.3" stroke="#000000" stroke-opacity="1" fill="none" fill-opacity="0" stroke-linecap="butt" stroke-linejoin="mitre" d="M88.6,500.9 C88.6,500.9 88.6,535 88.6,535 88.6,535 100.4,535 100.4,535 100.4,535 100.4,535.1 100.4,535.1 100.4,535.1 120.8,535.1 120.8,535.1 120.8,535.1 120.8,535 120.8,535 120.8,535 176.2,535 176.2,535 176.2,535 176.1,534.9 176.1,534.9 176.1,533.4 182.7,532.2 190.7,532.2 198.8,532.2 205.3,533.4 205.3,534.9 205.3,534.9 205.3,535 205.2,535 205.2,535 230.7,535 230.7,535 230.7,535 230.7,534.9 230.7,534.9 230.7,533.4 237.2,532.2 245.3,532.2 253.3,532.2 259.8,533.4 259.8,534.9 259.8,534.9 259.8,535 259.8,535 259.8,535 285.3,535 285.3,535 285.3,535 285.3,534.9 285.3,534.9 285.3,533.4 291.8,532.2 299.9,532.2 307.9,532.2 314.4,533.4 314.4,534.9 314.4,534.9 314.4,535 314.4,535 314.4,535 339.9,535 339.9,535 339.9,535 339.9,534.9 339.9,534.9 339.9,533.4 346.4,532.2 354.4,532.2 362.5,532.2 369,533.4 369,534.9 369,534.9 369,535 369,535 369,535 394.5,535 394.5,535 394.4,535 394.4,534.9 394.4,534.9 394.4,533.4 401,532.2 409,532.2 417,532.2 423.6,533.4 423.6,534.9 423.6,534.9 423.5,535 423.5,535 423.5,535 449,535 449,535 449,535 449,534.9 449,534.9 449,533.4 455.5,532.2 463.6,532.2 471.6,532.2 478.1,533.4 478.1,534.9 478.1,534.9 478.1,535 478.1,535 478.1,535 503.6,535 503.6,535 503.6,535 503.6,534.9 503.6,534.9 503.6,533.4 510.1,532.2 518.1,532.2 526.2,532.2 532.7,533.4 532.7,534.9 532.7,534.9 532.7,535 532.7,535 532.7,535 558.2,535 558.2,535 558.2,535 558.2,534.9 558.2,534.9 558.2,533.4 564.7,532.2 572.7,532.2 580.8,532.2 587.3,533.4 587.3,534.9 587.3,534.9 587.3,535 587.2,535 587.2,535 612.8,535 612.8,535 612.7,535 612.7,534.9 612.7,534.9 612.7,533.4 619.3,532.2 627.3,532.2 635.3,532.2 641.9,533.4 641.9,534.9 641.9,534.9 641.8,535 641.8,535 641.8,535 667.3,535 667.3,535 667.3,535 667.3,534.9 667.3,534.9 667.3,533.4 673.8,532.2 681.9,532.2 689.9,532.2 696.4,533.4 696.4,534.9 696.4,534.9 696.4,535 696.4,535 696.4,535 725.7,535 725.7,535 725.7,535 725.7,501 725.7,501 725.7,501 711.6,501 711.6,501 711.6,501 711.6,517.9 711.6,517.9 711.6,517.9 706.3,517.9 706.3,517.9 706.3,517.9 706.3,501 706.3,501 706.3,501 657,501 657,501 657,501 657,517.9 657,517.9 657,517.9 651.7,517.9 651.7,517.9 651.7,517.9 651.7,501 651.7,501 651.7,501 602.5,501 602.5,501 602.5,501 602.5,517.9 602.5,517.9 602.5,517.9 597.2,517.9 597.2,517.9 597.2,517.9 597.2,501 597.2,501 597.2,501 547.9,501 547.9,501 547.9,501 547.9,517.9 547.9,517.9 547.9,517.9 542.6,517.9 542.6,517.9 542.6,517.9 542.6,501 542.6,501 542.6,501 493.3,501 493.3,501 493.3,501 493.3,517.9 493.3,517.9 493.3,517.9 488,517.9 488,517.9 488,517.9 488,501 488,501 488,501 438.8,501 438.8,501 438.8,501 438.8,517.9 438.8,517.9 438.8,517.9 433.4,517.9 433.4,517.9 433.4,517.9 433.4,501 433.4,501 433.4,501 384.2,501 384.2,501 384.2,501 384.2,517.9 384.2,517.9 384.2,517.9 378.9,517.9 378.9,517.9 378.9,517.9 378.9,501 378.9,501 378.9,501 329.6,501 329.6,501 329.6,501 329.6,517.9 329.6,517.9 329.6,517.9 324.3,517.9 324.3,517.9 324.3,517.9 324.3,501 324.3,501 324.3,501 275,501 275,501 275,501 275,517.9 275,517.9 275,517.9 269.7,517.9 269.7,517.9 269.7,517.9 269.7,501 269.7,501 269.7,501 220.5,501 220.5,501 220.5,501 220.5,517.9 220.5,517.9 220.5,517.9 215.2,517.9 215.2,517.9 215.2,517.9 215.2,501 215.2,501 215.2,501 165.9,501 165.9,501 165.9,501 165.9,517.9 165.9,517.9 165.9,517.9 160.6,517.9 160.6,517.9 160.6,517.9 160.6,501 160.6,501 160.6,501 123.7,501 123.7,501 123.7,501 120.8,500.9 120.8,500.9 120.8,500.9 103.1,500.9 103.1,500.9 103.1,500.9 103.1,500.9 103.1,500.9 103.1,500.9 88.6,500.9 88.6,500.9 Z " />
   <path id="Path5" stroke-width="0.3" stroke="#000000" stroke-opacity="1" fill="none" fill-opacity="0" stroke-linecap="butt" stroke-linejoin="mitre" d="M83.8,437.7 C83.8,437.7 83.8,471.8 83.8,471.8 83.8,471.8 95.6,471.8 95.6,471.8 95.6,471.8 95.6,471.9 95.6,471.9 95.6,471.9 115.9,471.9 115.9,471.9 115.9,471.9 115.9,471.8 115.9,471.8 115.9,471.8 171.3,471.8 171.3,471.8 171.3,471.8 171.3,471.8 171.3,471.7 171.3,470.2 177.8,469 185.8,469 193.9,469 200.4,470.2 200.4,471.7 200.4,471.8 200.4,471.8 200.4,471.8 200.4,471.8 225.9,471.8 225.9,471.8 225.9,471.8 225.9,471.8 225.9,471.7 225.9,470.2 232.4,469 240.4,469 248.5,469 255,470.2 255,471.7 255,471.8 255,471.8 254.9,471.8 254.9,471.8 280.5,471.8 280.5,471.8 280.4,471.8 280.4,471.8 280.4,471.7 280.4,470.2 287,469 295,469 303,469 309.6,470.2 309.6,471.7 309.6,471.8 309.5,471.8 309.5,471.8 309.5,471.8 335,471.8 335,471.8 335,471.8 335,471.8 335,471.7 335,470.2 341.5,469 349.6,469 357.6,469 364.1,470.2 364.1,471.7 364.1,471.8 364.1,471.8 364.1,471.8 364.1,471.8 389.6,471.8 389.6,471.8 389.6,471.8 389.6,471.8 389.6,471.7 389.6,470.2 396.1,469 404.1,469 412.2,469 418.7,470.2 418.7,471.7 418.7,471.8 418.7,471.8 418.7,471.8 418.7,471.8 444.2,471.8 444.2,471.8 444.2,471.8 444.2,471.8 444.1,471.7 444.2,470.2 450.7,469 458.7,469 466.8,469 473.3,470.2 473.3,471.7 473.3,471.8 473.3,471.8 473.2,471.8 473.2,471.8 498.7,471.8 498.7,471.8 498.7,471.8 498.7,471.8 498.7,471.7 498.7,470.2 505.2,469 513.3,469 521.3,469 527.9,470.2 527.9,471.7 527.8,471.8 527.8,471.8 527.8,471.8 527.8,471.8 553.3,471.8 553.3,471.8 553.3,471.8 553.3,471.8 553.3,471.7 553.3,470.2 559.8,469 567.9,469 575.9,469 582.4,470.2 582.4,471.7 582.4,471.8 582.4,471.8 582.4,471.8 582.4,471.8 607.9,471.8 607.9,471.8 607.9,471.8 607.9,471.8 607.9,471.7 607.9,470.2 614.4,469 622.4,469 630.5,469 637,470.2 637,471.7 637,471.8 637,471.8 637,471.8 637,471.8 662.5,471.8 662.5,471.8 662.5,471.8 662.4,471.8 662.4,471.7 662.4,470.2 669,469 677,469 685.1,469 691.6,470.2 691.6,471.7 691.6,471.8 691.6,471.8 691.5,471.8 691.5,471.8 720.8,471.8 720.8,471.8 720.8,471.8 720.8,437.8 720.8,437.8 720.8,437.8 706.8,437.8 706.8,437.8 706.8,437.8 706.8,454.8 706.8,454.8 706.8,454.8 701.5,454.8 701.5,454.8 701.5,454.8 701.5,437.8 701.5,437.8 701.5,437.8 652.2,437.8 652.2,437.8 652.2,437.8 652.2,454.8 652.2,454.8 652.2,454.8 646.9,454.8 646.9,454.8 646.9,454.8 646.9,437.8 646.9,437.8 646.9,437.8 597.6,437.8 597.6,437.8 597.6,437.8 597.6,454.8 597.6,454.8 597.6,454.8 592.3,454.8 592.3,454.8 592.3,454.8 592.3,437.8 592.3,437.8 592.3,437.8 543,437.8 543,437.8 543,437.8 543,454.8 543,454.8 543,454.8 537.7,454.8 537.7,454.8 537.7,454.8 537.7,437.8 537.7,437.8 537.7,437.8 488.5,437.8 488.5,437.8 488.5,437.8 488.5,454.8 488.5,454.8 488.5,454.8 483.2,454.8 483.2,454.8 483.2,454.8 483.2,437.8 483.2,437.8 483.2,437.8 433.9,437.8 433.9,437.8 433.9,437.8 433.9,454.8 433.9,454.8 433.9,454.8 428.6,454.8 428.6,454.8 428.6,454.8 428.6,437.8 428.6,437.8 428.6,437.8 379.3,437.8 379.3,437.8 379.3,437.8 379.3,454.8 379.3,454.8 379.3,454.8 374,454.8 374,454.8 374,454.8 374,437.8 374,437.8 374,437.8 324.7,437.8 324.7,437.8 324.7,437.8 324.7,454.8 324.7,454.8 324.7,454.8 319.4,454.8 319.4,454.8 319.4,454.8 319.4,437.8 319.4,437.8 319.4,437.8 270.2,437.8 270.2,437.8 270.2,437.8 270.2,454.8 270.2,454.8 270.2,454.8 264.9,454.8 264.9,454.8 264.9,454.8 264.9,437.8 264.9,437.8 264.9,437.8 215.6,437.8 215.6,437.8 215.6,437.8 215.6,454.8 215.6,454.8 215.6,454.8 210.3,454.8 210.3,454.8 210.3,454.8 210.3,437.8 210.3,437.8 210.3,437.8 161,437.8 161,437.8 161,437.8 161,454.8 161,454.8 161,454.8 155.7,454.8 155.7,454.8 155.7,454.8 155.7,437.8 155.7,437.8 155.7,437.8 118.8,437.8 118.8,437.8 118.8,437.8 115.9,437.8 115.9,437.8 115.9,437.8 98.2,437.8 98.2,437.8 98.2,437.8 98.2,437.7 98.2,437.7 98.2,437.7 83.8,437.7 83.8,437.7 Z " />
   <path id="Path6" stroke-width="0.3" stroke="#000000" stroke-opacity="1" fill="none" fill-opacity="0" stroke-linecap="butt" stroke-linejoin="mitre" d="M88.6,559.2 C88.6,559.2 88.6,593.3 88.6,593.3 88.6,593.3 100.4,593.3 100.4,593.3 100.4,593.3 100.4,593.4 100.4,593.4 100.4,593.4 120.8,593.4 120.8,593.4 120.8,593.4 120.8,593.3 120.8,593.3 120.8,593.3 176.2,593.3 176.2,593.3 176.2,593.3 176.1,593.2 176.1,593.2 176.1,591.7 182.7,590.5 190.7,590.5 198.8,590.5 205.3,591.7 205.3,593.2 205.3,593.2 205.3,593.3 205.2,593.3 205.2,593.3 230.7,593.3 230.7,593.3 230.7,593.3 230.7,593.2 230.7,593.2 230.7,591.7 237.2,590.5 245.3,590.5 253.3,590.5 259.8,591.7 259.8,593.2 259.8,593.2 259.8,593.3 259.8,593.3 259.8,593.3 285.3,593.3 285.3,593.3 285.3,593.3 285.3,593.2 285.3,593.2 285.3,591.7 291.8,590.5 299.9,590.5 307.9,590.5 314.4,591.7 314.4,593.2 314.4,593.2 314.4,593.3 314.4,593.3 314.4,593.3 339.9,593.3 339.9,593.3 339.9,593.3 339.9,593.2 339.9,593.2 339.9,591.7 346.4,590.5 354.4,590.5 362.5,590.5 369,591.7 369,593.2 369,593.2 369,593.3 369,593.3 369,593.3 394.5,593.3 394.5,593.3 394.4,593.3 394.4,593.2 394.4,593.2 394.4,591.7 401,590.5 409,590.5 417,590.5 423.6,591.7 423.6,593.2 423.6,593.2 423.5,593.3 423.5,593.3 423.5,593.3 449,593.3 449,593.3 449,593.3 449,593.2 449,593.2 449,591.7 455.5,590.5 463.6,590.5 471.6,590.5 478.1,591.7 478.1,593.2 478.1,593.2 478.1,593.3 478.1,593.3 478.1,593.3 503.6,593.3 503.6,593.3 503.6,593.3 503.6,593.2 503.6,593.2 503.6,591.7 510.1,590.5 518.1,590.5 526.2,590.5 532.7,591.7 532.7,593.2 532.7,593.2 532.7,593.3 532.7,593.3 532.7,593.3 558.2,593.3 558.2,593.3 558.2,593.3 558.2,593.2 558.2,593.2 558.2,591.7 564.7,590.5 572.7,590.5 580.8,590.5 587.3,591.7 587.3,593.2 587.3,593.2 587.3,593.3 587.2,593.3 587.2,593.3 612.8,593.3 612.8,593.3 612.7,593.3 612.7,593.2 612.7,593.2 612.7,591.7 619.3,590.5 627.3,590.5 635.3,590.5 641.9,591.7 641.9,593.2 641.9,593.2 641.8,593.3 641.8,593.3 641.8,593.3 667.3,593.3 667.3,593.3 667.3,593.3 667.3,593.2 667.3,593.2 667.3,591.7 673.8,590.5 681.9,590.5 689.9,590.5 696.4,591.7 696.4,593.2 696.4,593.2 696.4,593.3 696.4,593.3 696.4,593.3 725.7,593.3 725.7,593.3 725.7,593.3 725.7,559.3 725.7,559.3 725.7,559.3 711.6,559.3 711.6,559.3 711.6,559.3 711.6,576.2 711.6,576.2 711.6,576.2 706.3,576.2 706.3,576.2 706.3,576.2 706.3,559.3 706.3,559.3 706.3,559.3 657,559.3 657,559.3 657,559.3 657,576.2 657,576.2 657,576.2 651.7,576.2 651.7,576.2 651.7,576.2 651.7,559.3 651.7,559.3 651.7,559.3 602.5,559.3 602.5,559.3 602.5,559.3 602.5,576.2 602.5,576.2 602.5,576.2 597.2,576.2 597.2,576.2 597.2,576.2 597.2,559.3 597.2,559.3 597.2,559.3 547.9,559.3 547.9,559.3 547.9,559.3 547.9,576.2 547.9,576.2 547.9,576.2 542.6,576.2 542.6,576.2 542.6,576.2 542.6,559.3 542.6,559.3 542.6,559.3 493.3,559.3 493.3,559.3 493.3,559.3 493.3,576.2 493.3,576.2 493.3,576.2 488,576.2 488,576.2 488,576.2 488,559.3 488,559.3 488,559.3 438.8,559.3 438.8,559.3 438.8,559.3 438.8,576.2 438.8,576.2 438.8,576.2 433.4,576.2 433.4,576.2 433.4,576.2 433.4,559.3 433.4,559.3 433.4,559.3 384.2,559.3 384.2,559.3 384.2,559.3 384.2,576.2 384.2,576.2 384.2,576.2 378.9,576.2 378.9,576.2 378.9,576.2 378.9,559.3 378.9,559.3 378.9,559.3 329.6,559.3 329.6,559.3 329.6,559.3 329.6,576.2 329.6,576.2 329.6,576.2 324.3,576.2 324.3,576.2 324.3,576.2 324.3,559.3 324.3,559.3 324.3,559.3 275,559.3 275,559.3 275,559.3 275,576.2 275,576.2 275,576.2 269.7,576.2 269.7,576.2 269.7,576.2 269.7,559.3 269.7,559.3 269.7,559.3 220.5,559.3 220.5,559.3 220.5,559.3 220.5,576.2 220.5,576.2 220.5,576.2 215.2,576.2 215.2,576.2 215.2,576.2 215.2,559.3 215.2,559.3 215.2,559.3 165.9,559.3 165.9,559.3 165.9,559.3 165.9,576.2 165.9,576.2 165.9,576.2 160.6,576.2 160.6,576.2 160.6,576.2 160.6,559.3 160.6,559.3 160.6,559.3 123.7,559.3 123.7,559.3 123.7,559.3 120.8,559.2 120.8,559.2 120.8,559.2 103.1,559.2 103.1,559.2 103.1,559.2 103.1,559.2 103.1,559.2 103.1,559.2 88.6,559.2 88.6,559.2 Z " />
   <path id="Path7" stroke-width="0.3" stroke="#000000" stroke-opacity="1" fill="none" fill-opacity="0" stroke-linecap="butt" stroke-linejoin="mitre" d="M95.1,674.2 C95.1,674.2 95.1,708.3 95.1,708.3 95.1,708.3 106.9,708.3 106.9,708.3 106.9,708.3 106.9,708.4 106.9,708.4 106.9,708.4 127.3,708.4 127.3,708.4 127.3,708.4 127.3,708.3 127.3,708.3 127.3,708.3 182.6,708.3 182.6,708.3 182.6,708.3 182.6,708.2 182.6,708.2 182.6,706.7 189.1,705.5 197.2,705.5 205.2,705.5 211.8,706.7 211.8,708.2 211.7,708.2 211.7,708.3 211.7,708.3 211.7,708.3 237.2,708.3 237.2,708.3 237.2,708.3 237.2,708.2 237.2,708.2 237.2,706.7 243.7,705.5 251.8,705.5 259.8,705.5 266.3,706.7 266.3,708.2 266.3,708.2 266.3,708.3 266.3,708.3 266.3,708.3 291.8,708.3 291.8,708.3 291.8,708.3 291.8,708.2 291.8,708.2 291.8,706.7 298.3,705.5 306.3,705.5 314.4,705.5 320.9,706.7 320.9,708.2 320.9,708.2 320.9,708.3 320.9,708.3 320.9,708.3 346.4,708.3 346.4,708.3 346.4,708.3 346.3,708.2 346.3,708.2 346.3,706.7 352.9,705.5 360.9,705.5 368.9,705.5 375.5,706.7 375.5,708.2 375.5,708.2 375.5,708.3 375.4,708.3 375.4,708.3 400.9,708.3 400.9,708.3 400.9,708.3 400.9,708.2 400.9,708.2 400.9,706.7 407.4,705.5 415.5,705.5 423.5,705.5 430,706.7 430,708.2 430,708.2 430,708.3 430,708.3 430,708.3 455.5,708.3 455.5,708.3 455.5,708.3 455.5,708.2 455.5,708.2 455.5,706.7 462,705.5 470.1,705.5 478.1,705.5 484.6,706.7 484.6,708.2 484.6,708.2 484.6,708.3 484.6,708.3 484.6,708.3 510.1,708.3 510.1,708.3 510.1,708.3 510.1,708.2 510.1,708.2 510.1,706.7 516.6,705.5 524.6,705.5 532.7,705.5 539.2,706.7 539.2,708.2 539.2,708.2 539.2,708.3 539.2,708.3 539.2,708.3 564.7,708.3 564.7,708.3 564.6,708.3 564.6,708.2 564.6,708.2 564.6,706.7 571.2,705.5 579.2,705.5 587.2,705.5 593.8,706.7 593.8,708.2 593.8,708.2 593.7,708.3 593.7,708.3 593.7,708.3 619.2,708.3 619.2,708.3 619.2,708.3 619.2,708.2 619.2,708.2 619.2,706.7 625.7,705.5 633.8,705.5 641.8,705.5 648.3,706.7 648.3,708.2 648.3,708.2 648.3,708.3 648.3,708.3 648.3,708.3 673.8,708.3 673.8,708.3 673.8,708.3 673.8,708.2 673.8,708.2 673.8,706.7 680.3,705.5 688.3,705.5 696.4,705.5 702.9,706.7 702.9,708.2 702.9,708.2 702.9,708.3 702.9,708.3 702.9,708.3 732.1,708.3 732.1,708.3 732.1,708.3 732.1,674.3 732.1,674.3 732.1,674.3 718.1,674.3 718.1,674.3 718.1,674.3 718.1,691.2 718.1,691.2 718.1,691.2 712.8,691.2 712.8,691.2 712.8,691.2 712.8,674.3 712.8,674.3 712.8,674.3 663.5,674.3 663.5,674.3 663.5,674.3 663.5,691.2 663.5,691.2 663.5,691.2 658.2,691.2 658.2,691.2 658.2,691.2 658.2,674.3 658.2,674.3 658.2,674.3 609,674.3 609,674.3 609,674.3 609,691.2 609,691.2 609,691.2 603.6,691.2 603.6,691.2 603.6,691.2 603.6,674.3 603.6,674.3 603.6,674.3 554.4,674.3 554.4,674.3 554.4,674.3 554.4,691.2 554.4,691.2 554.4,691.2 549.1,691.2 549.1,691.2 549.1,691.2 549.1,674.3 549.1,674.3 549.1,674.3 499.8,674.3 499.8,674.3 499.8,674.3 499.8,691.2 499.8,691.2 499.8,691.2 494.5,691.2 494.5,691.2 494.5,691.2 494.5,674.3 494.5,674.3 494.5,674.3 445.2,674.3 445.2,674.3 445.2,674.3 445.2,691.2 445.2,691.2 445.2,691.2 439.9,691.2 439.9,691.2 439.9,691.2 439.9,674.3 439.9,674.3 439.9,674.3 390.7,674.3 390.7,674.3 390.7,674.3 390.7,691.2 390.7,691.2 390.7,691.2 385.3,691.2 385.3,691.2 385.3,691.2 385.3,674.3 385.3,674.3 385.3,674.3 336.1,674.3 336.1,674.3 336.1,674.3 336.1,691.2 336.1,691.2 336.1,691.2 330.8,691.2 330.8,691.2 330.8,691.2 330.8,674.3 330.8,674.3 330.8,674.3 281.5,674.3 281.5,674.3 281.5,674.3 281.5,691.2 281.5,691.2 281.5,691.2 276.2,691.2 276.2,691.2 276.2,691.2 276.2,674.3 276.2,674.3 276.2,674.3 226.9,674.3 226.9,674.3 226.9,674.3 226.9,691.2 226.9,691.2 226.9,691.2 221.6,691.2 221.6,691.2 221.6,691.2 221.6,674.3 221.6,674.3 221.6,674.3 172.4,674.3 172.4,674.3 172.4,674.3 172.4,691.2 172.4,691.2 172.4,691.2 167.1,691.2 167.1,691.2 167.1,691.2 167.1,674.3 167.1,674.3 167.1,674.3 130.2,674.3 130.2,674.3 130.2,674.3 127.3,674.2 127.3,674.2 127.3,674.2 109.6,674.2 109.6,674.2 109.6,674.2 109.6,674.2 109.6,674.2 109.6,674.2 95.1,674.2 95.1,674.2 Z " />
   <path id="Path8" stroke-width="0.3" stroke="#000000" stroke-opacity="1" fill="none" fill-opacity="0" stroke-linecap="butt" stroke-linejoin="mitre" d="M91.9,617.5 C91.9,617.5 91.9,651.6 91.9,651.6 91.9,651.6 103.7,651.6 103.7,651.6 103.7,651.6 103.7,651.7 103.7,651.7 103.7,651.7 124,651.7 124,651.7 124,651.7 124,651.6 124,651.6 124,651.6 179.4,651.6 179.4,651.6 179.4,651.6 179.4,651.5 179.4,651.5 179.4,650 185.9,648.8 193.9,648.8 202,648.8 208.5,650 208.5,651.5 208.5,651.5 208.5,651.6 208.5,651.6 208.5,651.6 234,651.6 234,651.6 234,651.6 234,651.5 234,651.5 234,650 240.5,648.8 248.5,648.8 256.6,648.8 263.1,650 263.1,651.5 263.1,651.5 263.1,651.6 263,651.6 263,651.6 288.6,651.6 288.6,651.6 288.5,651.6 288.5,651.5 288.5,651.5 288.5,650 295,648.8 303.1,648.8 311.1,648.8 317.7,650 317.7,651.5 317.7,651.5 317.6,651.6 317.6,651.6 317.6,651.6 343.1,651.6 343.1,651.6 343.1,651.6 343.1,651.5 343.1,651.5 343.1,650 349.6,648.8 357.7,648.8 365.7,648.8 372.2,650 372.2,651.5 372.2,651.5 372.2,651.6 372.2,651.6 372.2,651.6 397.7,651.6 397.7,651.6 397.7,651.6 397.7,651.5 397.7,651.5 397.7,650 404.2,648.8 412.2,648.8 420.3,648.8 426.8,650 426.8,651.5 426.8,651.5 426.8,651.6 426.8,651.6 426.8,651.6 452.3,651.6 452.3,651.6 452.3,651.6 452.3,651.5 452.2,651.5 452.2,650 458.8,648.8 466.8,648.8 474.9,648.8 481.4,650 481.4,651.5 481.4,651.5 481.4,651.6 481.3,651.6 481.3,651.6 506.8,651.6 506.8,651.6 506.8,651.6 506.8,651.5 506.8,651.5 506.8,650 513.3,648.8 521.4,648.8 529.4,648.8 536,650 536,651.5 535.9,651.5 535.9,651.6 535.9,651.6 535.9,651.6 561.4,651.6 561.4,651.6 561.4,651.6 561.4,651.5 561.4,651.5 561.4,650 567.9,648.8 576,648.8 584,648.8 590.5,650 590.5,651.5 590.5,651.5 590.5,651.6 590.5,651.6 590.5,651.6 616,651.6 616,651.6 616,651.6 616,651.5 616,651.5 616,650 622.5,648.8 630.5,648.8 638.6,648.8 645.1,650 645.1,651.5 645.1,651.5 645.1,651.6 645.1,651.6 645.1,651.6 670.6,651.6 670.6,651.6 670.6,651.6 670.5,651.5 670.5,651.5 670.5,650 677.1,648.8 685.1,648.8 693.1,648.8 699.7,650 699.7,651.5 699.7,651.5 699.7,651.6 699.6,651.6 699.6,651.6 728.9,651.6 728.9,651.6 728.9,651.6 728.9,617.6 728.9,617.6 728.9,617.6 714.9,617.6 714.9,617.6 714.9,617.6 714.9,634.6 714.9,634.6 714.9,634.6 709.6,634.6 709.6,634.6 709.6,634.6 709.6,617.6 709.6,617.6 709.6,617.6 660.3,617.6 660.3,617.6 660.3,617.6 660.3,634.6 660.3,634.6 660.3,634.6 655,634.6 655,634.6 655,634.6 655,617.6 655,617.6 655,617.6 605.7,617.6 605.7,617.6 605.7,617.6 605.7,634.6 605.7,634.6 605.7,634.6 600.4,634.6 600.4,634.6 600.4,634.6 600.4,617.6 600.4,617.6 600.4,617.6 551.1,617.6 551.1,617.6 551.1,617.6 551.1,634.6 551.1,634.6 551.1,634.6 545.8,634.6 545.8,634.6 545.8,634.6 545.8,617.6 545.8,617.6 545.8,617.6 496.6,617.6 496.6,617.6 496.6,617.6 496.6,634.6 496.6,634.6 496.6,634.6 491.3,634.6 491.3,634.6 491.3,634.6 491.3,617.6 491.3,617.6 491.3,617.6 442,617.6 442,617.6 442,617.6 442,634.6 442,634.6 442,634.6 436.7,634.6 436.7,634.6 436.7,634.6 436.7,617.6 436.7,617.6 436.7,617.6 387.4,617.6 387.4,617.6 387.4,617.6 387.4,634.6 387.4,634.6 387.4,634.6 382.1,634.6 382.1,634.6 382.1,634.6 382.1,617.6 382.1,617.6 382.1,617.6 332.8,617.6 332.8,617.6 332.8,617.6 332.8,634.6 332.8,634.6 332.8,634.6 327.5,634.6 327.5,634.6 327.5,634.6 327.5,617.6 327.5,617.6 327.5,617.6 278.3,617.6 278.3,617.6 278.3,617.6 278.3,634.6 278.3,634.6 278.3,634.6 273,634.6 273,634.6 273,634.6 273,617.6 273,617.6 273,617.6 223.7,617.6 223.7,617.6 223.7,617.6 223.7,634.6 223.7,634.6 223.7,634.6 218.4,634.6 218.4,634.6 218.4,634.6 218.4,617.6 218.4,617.6 218.4,617.6 169.1,617.6 169.1,617.6 169.1,617.6 169.1,634.6 169.1,634.6 169.1,634.6 163.8,634.6 163.8,634.6 163.8,634.6 163.8,617.6 163.8,617.6 163.8,617.6 126.9,617.6 126.9,617.6 126.9,617.6 124,617.5 124,617.5 124,617.5 106.3,617.5 106.3,617.5 106.3,617.5 106.3,617.5 106.3,617.5 106.3,617.5 91.9,617.5 91.9,617.5 Z " />
   <path id="Path9" stroke-width="0.3" stroke="#000000" stroke-opacity="1" fill="none" fill-opacity="0" stroke-linecap="butt" stroke-linejoin="mitre" d="M96.7,732.5 C96.7,732.5 96.7,766.6 96.7,766.6 96.7,766.6 108.5,766.6 108.5,766.6 108.5,766.6 108.5,766.7 108.5,766.7 108.5,766.7 128.9,766.7 128.9,766.7 128.9,766.7 128.9,766.6 128.9,766.6 128.9,766.6 184.3,766.6 184.3,766.6 184.3,766.6 184.2,766.6 184.2,766.5 184.2,765 190.8,763.8 198.8,763.8 206.8,763.8 213.4,765 213.4,766.5 213.4,766.6 213.4,766.6 213.3,766.6 213.3,766.6 238.8,766.6 238.8,766.6 238.8,766.6 238.8,766.6 238.8,766.5 238.8,765 245.3,763.8 253.4,763.8 261.4,763.8 267.9,765 267.9,766.5 267.9,766.6 267.9,766.6 267.9,766.6 267.9,766.6 293.4,766.6 293.4,766.6 293.4,766.6 293.4,766.6 293.4,766.5 293.4,765 299.9,763.8 308,763.8 316,763.8 322.5,765 322.5,766.5 322.5,766.6 322.5,766.6 322.5,766.6 322.5,766.6 348,766.6 348,766.6 348,766.6 348,766.6 348,766.5 348,765 354.5,763.8 362.5,763.8 370.6,763.8 377.1,765 377.1,766.5 377.1,766.6 377.1,766.6 377.1,766.6 377.1,766.6 402.6,766.6 402.6,766.6 402.5,766.6 402.5,766.6 402.5,766.5 402.5,765 409.1,763.8 417.1,763.8 425.1,763.8 431.7,765 431.7,766.5 431.7,766.6 431.6,766.6 431.6,766.6 431.6,766.6 457.1,766.6 457.1,766.6 457.1,766.6 457.1,766.6 457.1,766.5 457.1,765 463.6,763.8 471.7,763.8 479.7,763.8 486.2,765 486.2,766.5 486.2,766.6 486.2,766.6 486.2,766.6 486.2,766.6 511.7,766.6 511.7,766.6 511.7,766.6 511.7,766.6 511.7,766.5 511.7,765 518.2,763.8 526.2,763.8 534.3,763.8 540.8,765 540.8,766.5 540.8,766.6 540.8,766.6 540.8,766.6 540.8,766.6 566.3,766.6 566.3,766.6 566.3,766.6 566.3,766.6 566.3,766.5 566.3,765 572.8,763.8 580.8,763.8 588.9,763.8 595.4,765 595.4,766.5 595.4,766.6 595.4,766.6 595.3,766.6 595.3,766.6 620.9,766.6 620.9,766.6 620.8,766.6 620.8,766.6 620.8,766.5 620.8,765 627.3,763.8 635.4,763.8 643.4,763.8 650,765 650,766.5 650,766.6 649.9,766.6 649.9,766.6 649.9,766.6 675.4,766.6 675.4,766.6 675.4,766.6 675.4,766.6 675.4,766.5 675.4,765 681.9,763.8 690,763.8 698,763.8 704.5,765 704.5,766.5 704.5,766.6 704.5,766.6 704.5,766.6 704.5,766.6 733.8,766.6 733.8,766.6 733.8,766.6 733.8,732.6 733.8,732.6 733.8,732.6 719.7,732.6 719.7,732.6 719.7,732.6 719.7,749.6 719.7,749.6 719.7,749.6 714.4,749.6 714.4,749.6 714.4,749.6 714.4,732.6 714.4,732.6 714.4,732.6 665.1,732.6 665.1,732.6 665.1,732.6 665.1,749.6 665.1,749.6 665.1,749.6 659.8,749.6 659.8,749.6 659.8,749.6 659.8,732.6 659.8,732.6 659.8,732.6 610.6,732.6 610.6,732.6 610.6,732.6 610.6,749.6 610.6,749.6 610.6,749.6 605.3,749.6 605.3,749.6 605.3,749.6 605.3,732.6 605.3,732.6 605.3,732.6 556,732.6 556,732.6 556,732.6 556,749.6 556,749.6 556,749.6 550.7,749.6 550.7,749.6 550.7,749.6 550.7,732.6 550.7,732.6 550.7,732.6 501.4,732.6 501.4,732.6 501.4,732.6 501.4,749.6 501.4,749.6 501.4,749.6 496.1,749.6 496.1,749.6 496.1,749.6 496.1,732.6 496.1,732.6 496.1,732.6 446.9,732.6 446.9,732.6 446.9,732.6 446.9,749.6 446.9,749.6 446.9,749.6 441.5,749.6 441.5,749.6 441.5,749.6 441.5,732.6 441.5,732.6 441.5,732.6 392.3,732.6 392.3,732.6 392.3,732.6 392.3,749.6 392.3,749.6 392.3,749.6 387,749.6 387,749.6 387,749.6 387,732.6 387,732.6 387,732.6 337.7,732.6 337.7,732.6 337.7,732.6 337.7,749.6 337.7,749.6 337.7,749.6 332.4,749.6 332.4,749.6 332.4,749.6 332.4,732.6 332.4,732.6 332.4,732.6 283.1,732.6 283.1,732.6 283.1,732.6 283.1,749.6 283.1,749.6 283.1,749.6 277.8,749.6 277.8,749.6 277.8,749.6 277.8,732.6 277.8,732.6 277.8,732.6 228.6,732.6 228.6,732.6 228.6,732.6 228.6,749.6 228.6,749.6 228.6,749.6 223.2,749.6 223.2,749.6 223.2,749.6 223.2,732.6 223.2,732.6 223.2,732.6 174,732.6 174,732.6 174,732.6 174,749.6 174,749.6 174,749.6 168.7,749.6 168.7,749.6 168.7,749.6 168.7,732.6 168.7,732.6 168.7,732.6 131.8,732.6 131.8,732.6 131.8,732.6 128.9,732.6 128.9,732.6 128.9,732.6 111.2,732.6 111.2,732.6 111.2,732.6 111.2,732.5 111.2,732.5 111.2,732.5 96.7,732.5 96.7,732.5 Z " />
   <path id="Path10" stroke-width="0.3" stroke="#000000" stroke-opacity="1" fill="none" fill-opacity="0" stroke-linecap="butt" stroke-linejoin="mitre" d="M78.9,238.5 C78.9,238.5 78.9,272.6 78.9,272.6 78.9,272.6 90.7,272.6 90.7,272.6 90.7,272.6 90.7,272.6 90.7,272.6 90.7,272.6 111.1,272.6 111.1,272.6 111.1,272.6 111.1,272.6 111.1,272.6 111.1,272.6 166.4,272.6 166.4,272.6 166.4,272.6 166.4,272.5 166.4,272.5 166.4,271 172.9,269.8 181,269.8 189,269.8 195.6,271 195.6,272.5 195.5,272.5 195.5,272.6 195.5,272.6 195.5,272.6 221,272.6 221,272.6 221,272.6 221,272.5 221,272.5 221,271 227.5,269.8 235.6,269.8 243.6,269.8 250.1,271 250.1,272.5 250.1,272.5 250.1,272.6 250.1,272.6 250.1,272.6 275.6,272.6 275.6,272.6 275.6,272.6 275.6,272.5 275.6,272.5 275.6,271 282.1,269.8 290.1,269.8 298.2,269.8 304.7,271 304.7,272.5 304.7,272.5 304.7,272.6 304.7,272.6 304.7,272.6 330.2,272.6 330.2,272.6 330.2,272.6 330.1,272.5 330.1,272.5 330.1,271 336.7,269.8 344.7,269.8 352.8,269.8 359.3,271 359.3,272.5 359.3,272.5 359.3,272.6 359.2,272.6 359.2,272.6 384.7,272.6 384.7,272.6 384.7,272.6 384.7,272.5 384.7,272.5 384.7,271 391.2,269.8 399.3,269.8 407.3,269.8 413.8,271 413.8,272.5 413.8,272.5 413.8,272.6 413.8,272.6 413.8,272.6 439.3,272.6 439.3,272.6 439.3,272.6 439.3,272.5 439.3,272.5 439.3,271 445.8,269.8 453.9,269.8 461.9,269.8 468.4,271 468.4,272.5 468.4,272.5 468.4,272.6 468.4,272.6 468.4,272.6 493.9,272.6 493.9,272.6 493.9,272.6 493.9,272.5 493.9,272.5 493.9,271 500.4,269.8 508.4,269.8 516.5,269.8 523,271 523,272.5 523,272.5 523,272.6 523,272.6 523,272.6 548.5,272.6 548.5,272.6 548.4,272.6 548.4,272.5 548.4,272.5 548.4,271 555,269.8 563,269.8 571,269.8 577.6,271 577.6,272.5 577.6,272.5 577.5,272.6 577.5,272.6 577.5,272.6 603,272.6 603,272.6 603,272.6 603,272.5 603,272.5 603,271 609.5,269.8 617.6,269.8 625.6,269.8 632.1,271 632.1,272.5 632.1,272.5 632.1,272.6 632.1,272.6 632.1,272.6 657.6,272.6 657.6,272.6 657.6,272.6 657.6,272.5 657.6,272.5 657.6,271 664.1,269.8 672.1,269.8 680.2,269.8 686.7,271 686.7,272.5 686.7,272.5 686.7,272.6 686.7,272.6 686.7,272.6 715.9,272.6 715.9,272.6 715.9,272.6 715.9,238.6 715.9,238.6 715.9,238.6 701.9,238.6 701.9,238.6 701.9,238.6 701.9,255.5 701.9,255.5 701.9,255.5 696.6,255.5 696.6,255.5 696.6,255.5 696.6,238.6 696.6,238.6 696.6,238.6 647.3,238.6 647.3,238.6 647.3,238.6 647.3,255.5 647.3,255.5 647.3,255.5 642,255.5 642,255.5 642,255.5 642,238.6 642,238.6 642,238.6 592.8,238.6 592.8,238.6 592.8,238.6 592.8,255.5 592.8,255.5 592.8,255.5 587.4,255.5 587.4,255.5 587.4,255.5 587.4,238.6 587.4,238.6 587.4,238.6 538.2,238.6 538.2,238.6 538.2,238.6 538.2,255.5 538.2,255.5 538.2,255.5 532.9,255.5 532.9,255.5 532.9,255.5 532.9,238.6 532.9,238.6 532.9,238.6 483.6,238.6 483.6,238.6 483.6,238.6 483.6,255.5 483.6,255.5 483.6,255.5 478.3,255.5 478.3,255.5 478.3,255.5 478.3,238.6 478.3,238.6 478.3,238.6 429,238.6 429,238.6 429,238.6 429,255.5 429,255.5 429,255.5 423.7,255.5 423.7,255.5 423.7,255.5 423.7,238.6 423.7,238.6 423.7,238.6 374.5,238.6 374.5,238.6 374.5,238.6 374.5,255.5 374.5,255.5 374.5,255.5 369.2,255.5 369.2,255.5 369.2,255.5 369.2,238.6 369.2,238.6 369.2,238.6 319.9,238.6 319.9,238.6 319.9,238.6 319.9,255.5 319.9,255.5 319.9,255.5 314.6,255.5 314.6,255.5 314.6,255.5 314.6,238.6 314.6,238.6 314.6,238.6 265.3,238.6 265.3,238.6 265.3,238.6 265.3,255.5 265.3,255.5 265.3,255.5 260,255.5 260,255.5 260,255.5 260,238.6 260,238.6 260,238.6 210.7,238.6 210.7,238.6 210.7,238.6 210.7,255.5 210.7,255.5 210.7,255.5 205.4,255.5 205.4,255.5 205.4,255.5 205.4,238.6 205.4,238.6 205.4,238.6 156.2,238.6 156.2,238.6 156.2,238.6 156.2,255.5 156.2,255.5 156.2,255.5 150.9,255.5 150.9,255.5 150.9,255.5 150.9,238.6 150.9,238.6 150.9,238.6 114,238.6 114,238.6 114,238.6 111.1,238.5 111.1,238.5 111.1,238.5 93.4,238.5 93.4,238.5 93.4,238.5 93.4,238.5 93.4,238.5 93.4,238.5 78.9,238.5 78.9,238.5 Z " />
</svg>
