<?xml version="1.0" standalone="no"?><!DOCTYPE svg PUBLIC "-//W3C//DTD SVG 1.1//EN"   "http://www.w3.org/Graphics/SVG/1.1/DTD/svg11.dtd"><svg width="864pt" height="864pt" viewBox="0 0 864 864" version="1.1"    xmlns="http://www.w3.org/2000/svg" xmlns:xlink="http://www.w3.org/1999/xlink">  <defs>  </defs>   <path id="Path0" stroke-width="0.3" stroke="#000000" stroke-opacity="1" fill="none" fill-opacity="0" stroke-linecap="butt" stroke-linejoin="mitre" d="M99.2,146.9 C83.7,146.6 71.1,120.2 70.8,87.2 70.8,87.2 65.2,87.2 65.2,87.2 65.2,87.2 65.2,723.1 65.2,723.1 65.2,723.1 70.4,723.1 70.4,723.1 70.5,689.5 83.3,662.4 99,662.4 99.1,662.4 99.1,662.4 99.2,662.4 99.2,662.4 99.2,650.8 99.2,650.8 99.2,650.8 81.5,650.8 81.5,650.8 81.5,650.8 81.5,645.5 81.5,645.5 81.5,645.5 99.2,645.5 99.2,645.5 99.2,645.5 99.2,602.1 99.2,602.1 99.2,602.1 81.5,602.1 81.5,602.1 81.5,602.1 81.5,596.9 81.5,596.9 81.5,596.9 99.2,596.9 99.2,596.9 99.2,596.9 99.2,553.5 99.2,553.5 99.2,553.5 81.5,553.5 81.5,553.5 81.5,553.5 81.5,548.2 81.5,548.2 81.5,548.2 99.2,548.2 99.2,548.2 99.2,548.2 99.2,504.9 99.2,504.9 99.2,504.9 81.5,504.9 81.5,504.9 81.5,504.9 81.5,499.6 81.5,499.6 81.5,499.6 99.2,499.6 99.2,499.6 99.2,499.6 99.2,456.2 99.2,456.2 99.2,456.2 81.5,456.2 81.5,456.2 81.5,456.2 81.5,451 81.5,451 81.5,451 99.2,451 99.2,451 99.2,451 99.2,407.6 99.2,407.6 99.2,407.6 81.5,407.6 81.5,407.6 81.5,407.6 81.5,402.3 81.5,402.3 81.5,402.3 99.2,402.3 99.2,402.3 99.2,402.3 99.2,359 99.2,359 99.2,359 81.5,359 81.5,359 81.5,359 81.5,353.7 81.5,353.7 81.5,353.7 99.2,353.7 99.2,353.7 99.2,353.7 99.2,310.3 99.2,310.3 99.2,310.3 81.5,310.3 81.5,310.3 81.5,310.3 81.5,305.1 81.5,305.1 81.5,305.1 99.2,305.1 99.2,305.1 99.2,305.1 99.2,261.7 99.2,261.7 99.2,261.7 81.5,261.7 81.5,261.7 81.5,261.7 81.5,256.4 81.5,256.4 81.5,256.4 99.2,256.4 99.2,256.4 99.2,256.4 99.2,213 99.2,213 99.2,213 81.5,213 81.5,213 81.5,213 81.5,207.8 81.5,207.8 81.5,207.8 99.2,207.8 99.2,207.8 99.2,207.8 99.2,164.4 99.2,164.4 99.2,164.4 81.5,164.4 81.5,164.4 81.5,164.4 81.5,159.2 81.5,159.2 81.5,159.2 99.2,159.2 99.2,159.2 99.2,159.2 99.2,146.9 99.2,146.9 Z " />
   <path id="Path1" stroke-width="0.3" stroke="#000000" stroke-opacity="1" fill="none" fill-opacity="0" stroke-linecap="butt" stroke-linejoin="mitre" d="M181,153.6 C165.5,153.3 153,126.9 152.6,93.9 152.6,93.9 147,93.9 147,93.9 147,93.9 147,729.8 147,729.8 147,729.8 152.2,729.8 152.2,729.8 152.4,696.2 165.1,669.1 180.9,669.1 180.9,669.1 181,669.1 181,669.1 181,669.1 181,657.5 181,657.5 181,657.5 163.4,657.5 163.4,657.5 163.4,657.5 163.4,652.2 163.4,652.2 163.4,652.2 181,652.2 181,652.2 181,652.2 181,608.8 181,608.8 181,608.8 163.4,608.8 163.4,608.8 163.4,608.8 163.4,603.6 163.4,603.6 163.4,603.6 181,603.6 181,603.6 181,603.6 181,560.2 181,560.2 181,560.2 163.4,560.2 163.4,560.2 163.4,560.2 163.4,554.9 163.4,554.9 163.4,554.9 181,554.9 181,554.9 181,554.9 181,511.6 181,511.6 181,511.6 163.4,511.6 163.4,511.6 163.4,511.6 163.4,506.3 163.4,506.3 163.4,506.3 181,506.3 181,506.3 181,506.3 181,462.9 181,462.9 181,462.9 163.4,462.9 163.4,462.9 163.4,462.9 163.4,457.7 163.4,457.7 163.4,457.7 181,457.7 181,457.7 181,457.7 181,414.3 181,414.3 181,414.3 163.4,414.3 163.4,414.3 163.4,414.3 163.4,409 163.4,409 163.4,409 181,409 181,409 181,409 181,365.6 181,365.6 181,365.6 163.4,365.6 163.4,365.6 163.4,365.6 163.4,360.4 163.4,360.4 163.4,360.4 181,360.4 181,360.4 181,360.4 181,317 181,317 181,317 163.4,317 163.4,317 163.4,317 163.4,311.8 163.4,311.8 163.4,311.8 181,311.8 181,311.8 181,311.8 181,268.4 181,268.4 181,268.4 163.4,268.4 163.4,268.4 163.4,268.4 163.4,263.1 163.4,263.1 163.4,263.1 181,263.1 181,263.1 181,263.1 181,219.7 181,219.7 181,219.7 163.4,219.7 163.4,219.7 163.4,219.7 163.4,214.5 163.4,214.5 163.4,214.5 181,214.5 181,214.5 181,214.5 181,171.1 181,171.1 181,171.1 163.4,171.1 163.4,171.1 163.4,171.1 163.4,165.9 163.4,165.9 163.4,165.9 181,165.9 181,165.9 181,165.9 181,153.6 181,153.6 Z " />
   <path id="Path2" stroke-width="0.3" stroke="#000000" stroke-opacity="1" fill="none" fill-opacity="0" stroke-linecap="butt" stroke-linejoin="mitre" d="M249.5,158.6 C234,158.3 221.4,131.9 221.1,98.9 221.1,98.9 215.5,98.9 215.5,98.9 215.5,98.9 215.5,734.8 215.5,734.8 215.5,734.8 220.7,734.8 220.7,734.8 220.8,701.2 233.6,674.2 249.3,674.1 249.4,674.2 249.4,674.2 249.5,674.2 249.5,674.2 249.5,662.5 249.5,662.5 249.5,662.5 231.8,662.5 231.8,662.5 231.8,662.5 231.8,657.2 231.8,657.2 231.8,657.2 249.5,657.2 249.5,657.2 249.5,657.2 249.5,613.8 249.5,613.8 249.5,613.8 231.8,613.8 231.8,613.8 231.8,613.8 231.8,608.6 231.8,608.6 231.8,608.6 249.5,608.6 249.5,608.6 249.5,608.6 249.5,565.2 249.5,565.2 249.5,565.2 231.8,565.2 231.8,565.2 231.8,565.2 231.8,560 231.8,560 231.8,560 249.5,560 249.5,560 249.5,560 249.5,516.6 249.5,516.6 249.5,516.6 231.8,516.6 231.8,516.6 231.8,516.6 231.8,511.3 231.8,511.3 231.8,511.3 249.5,511.3 249.5,511.3 249.5,511.3 249.5,467.9 249.5,467.9 249.5,467.9 231.8,467.9 231.8,467.9 231.8,467.9 231.8,462.7 231.8,462.7 231.8,462.7 249.5,462.7 249.5,462.7 249.5,462.7 249.5,419.3 249.5,419.3 249.5,419.3 231.8,419.3 231.8,419.3 231.8,419.3 231.8,414.1 231.8,414.1 231.8,414.1 249.5,414.1 249.5,414.1 249.5,414.1 249.5,370.7 249.5,370.7 249.5,370.7 231.8,370.7 231.8,370.7 231.8,370.7 231.8,365.4 231.8,365.4 231.8,365.4 249.5,365.4 249.5,365.4 249.5,365.4 249.5,322 249.5,322 249.5,322 231.8,322 231.8,322 231.8,322 231.8,316.8 231.8,316.8 231.8,316.8 249.5,316.8 249.5,316.8 249.5,316.8 249.5,273.4 249.5,273.4 249.5,273.4 231.8,273.4 231.8,273.4 231.8,273.4 231.8,268.1 231.8,268.1 231.8,268.1 249.5,268.1 249.5,268.1 249.5,268.1 249.5,224.8 249.5,224.8 249.5,224.8 231.8,224.8 231.8,224.8 231.8,224.8 231.8,219.5 231.8,219.5 231.8,219.5 249.5,219.5 249.5,219.5 249.5,219.5 249.5,176.1 249.5,176.1 249.5,176.1 231.8,176.1 231.8,176.1 231.8,176.1 231.8,170.9 231.8,170.9 231.8,170.9 249.5,170.9 249.5,170.9 249.5,170.9 249.5,158.6 249.5,158.6 Z " />
   <path id="Path3" stroke-width="0.3" stroke="#000000" stroke-opacity="1" fill="none" fill-opacity="0" stroke-linecap="butt" stroke-linejoin="mitre" d="M319.6,153.6 C304.1,153.3 291.6,126.9 291.2,93.9 291.2,93.9 285.6,93.9 285.6,93.9 285.6,93.9 285.6,729.8 285.6,729.8 285.6,729.8 290.8,729.8 290.8,729.8 290.9,696.2 303.7,669.1 319.5,669.1 319.5,669.1 319.5,669.1 319.6,669.1 319.6,669.1 319.6,657.5 319.6,657.5 319.6,657.5 301.9,657.5 301.9,657.5 301.9,657.5 301.9,652.2 301.9,652.2 301.9,652.2 319.6,652.2 319.6,652.2 319.6,652.2 319.6,608.8 319.6,608.8 319.6,608.8 301.9,608.8 301.9,608.8 301.9,608.8 301.9,603.6 301.9,603.6 301.9,603.6 319.6,603.6 319.6,603.6 319.6,603.6 319.6,560.2 319.6,560.2 319.6,560.2 301.9,560.2 301.9,560.2 301.9,560.2 301.9,554.9 301.9,554.9 301.9,554.9 319.6,554.9 319.6,554.9 319.6,554.9 319.6,511.6 319.6,511.6 319.6,511.6 301.9,511.6 301.9,511.6 301.9,511.6 301.9,506.3 301.9,506.3 301.9,506.3 319.6,506.3 319.6,506.3 319.6,506.3 319.6,462.9 319.6,462.9 319.6,462.9 301.9,462.9 301.9,462.9 301.9,462.9 301.9,457.7 301.9,457.7 301.9,457.7 319.6,457.7 319.6,457.7 319.6,457.7 319.6,414.3 319.6,414.3 319.6,414.3 301.9,414.3 301.9,414.3 301.9,414.3 301.9,409 301.9,409 301.9,409 319.6,409 319.6,409 319.6,409 319.6,365.6 319.6,365.6 319.6,365.6 301.9,365.6 301.9,365.6 301.9,365.6 301.9,360.4 301.9,360.4 301.9,360.4 319.6,360.4 319.6,360.4 319.6,360.4 319.6,317 319.6,317 319.6,317 301.9,317 301.9,317 301.9,317 301.9,311.8 301.9,311.8 301.9,311.8 319.6,311.8 319.6,311.8 319.6,311.8 319.6,268.4 319.6,268.4 319.6,268.4 301.9,268.4 301.9,268.4 301.9,268.4 301.9,263.1 301.9,263.1 301.9,263.1 319.6,263.1 319.6,263.1 319.6,263.1 319.6,219.7 319.6,219.7 319.6,219.7 301.9,219.7 301.9,219.7 301.9,219.7 301.9,214.5 301.9,214.5 301.9,214.5 319.6,214.5 319.6,214.5 319.6,214.5 319.6,171.1 319.6,171.1 319.6,171.1 301.9,171.1 301.9,171.1 301.9,171.1 301.9,165.9 301.9,165.9 301.9,165.9 319.6,165.9 319.6,165.9 319.6,165.9 319.6,153.6 319.6,153.6 Z " />
   <path id="Path4" stroke-width="0.3" stroke="#000000" stroke-opacity="1" fill="none" fill-opacity="0" stroke-linecap="butt" stroke-linejoin="mitre" d="M450,162 C434.5,161.7 421.9,135.2 421.6,102.3 421.6,102.3 416,102.3 416,102.3 416,102.3 416,738.1 416,738.1 416,738.1 421.2,738.1 421.2,738.1 421.3,704.6 434.1,677.5 449.8,677.5 449.9,677.5 449.9,677.5 450,677.5 450,677.5 450,665.8 450,665.8 450,665.8 432.3,665.8 432.3,665.8 432.3,665.8 432.3,660.6 432.3,660.6 432.3,660.6 450,660.6 450,660.6 450,660.6 450,617.2 450,617.2 450,617.2 432.3,617.2 432.3,617.2 432.3,617.2 432.3,611.9 432.3,611.9 432.3,611.9 450,611.9 450,611.9 450,611.9 450,568.6 450,568.6 450,568.6 432.3,568.6 432.3,568.6 432.3,568.6 432.3,563.3 432.3,563.3 432.3,563.3 450,563.3 450,563.3 450,563.3 450,519.9 450,519.9 450,519.9 432.3,519.9 432.3,519.9 432.3,519.9 432.3,514.7 432.3,514.7 432.3,514.7 450,514.7 450,514.7 450,514.7 450,471.3 450,471.3 450,471.3 432.3,471.3 432.3,471.3 432.3,471.3 432.3,466 432.3,466 432.3,466 450,466 450,466 450,466 450,422.7 450,422.7 450,422.7 432.3,422.7 432.3,422.7 432.3,422.7 432.3,417.4 432.3,417.4 432.3,417.4 450,417.4 450,417.4 450,417.4 450,374 450,374 450,374 432.3,374 432.3,374 432.3,374 432.3,368.8 432.3,368.8 432.3,368.8 450,368.8 450,368.8 450,368.8 450,325.4 450,325.4 450,325.4 432.3,325.4 432.3,325.4 432.3,325.4 432.3,320.1 432.3,320.1 432.3,320.1 450,320.1 450,320.1 450,320.1 450,276.7 450,276.7 450,276.7 432.3,276.7 432.3,276.7 432.3,276.7 432.3,271.5 432.3,271.5 432.3,271.5 450,271.5 450,271.5 450,271.5 450,228.1 450,228.1 450,228.1 432.3,228.1 432.3,228.1 432.3,228.1 432.3,222.9 432.3,222.9 432.3,222.9 450,222.9 450,222.9 450,222.9 450,179.5 450,179.5 450,179.5 432.3,179.5 432.3,179.5 432.3,179.5 432.3,174.2 432.3,174.2 432.3,174.2 450,174.2 450,174.2 450,174.2 450,162 450,162 Z " />
   <path id="Path5" stroke-width="0.3" stroke="#000000" stroke-opacity="1" fill="none" fill-opacity="0" stroke-linecap="butt" stroke-linejoin="mitre" d="M381.2,156.9 C365.7,156.6 353.1,130.2 352.8,97.3 352.8,97.3 347.2,97.3 347.2,97.3 347.2,97.3 347.2,733.1 347.2,733.1 347.2,733.1 352.4,733.1 352.4,733.1 352.5,699.6 365.3,672.5 381,672.5 381.1,672.5 381.1,672.5 381.2,672.5 381.2,672.5 381.2,660.8 381.2,660.8 381.2,660.8 363.5,660.8 363.5,660.8 363.5,660.8 363.5,655.6 363.5,655.6 363.5,655.6 381.2,655.6 381.2,655.6 381.2,655.6 381.2,612.2 381.2,612.2 381.2,612.2 363.5,612.2 363.5,612.2 363.5,612.2 363.5,606.9 363.5,606.9 363.5,606.9 381.2,606.9 381.2,606.9 381.2,606.9 381.2,563.5 381.2,563.5 381.2,563.5 363.5,563.5 363.5,563.5 363.5,563.5 363.5,558.3 363.5,558.3 363.5,558.3 381.2,558.3 381.2,558.3 381.2,558.3 381.2,514.9 381.2,514.9 381.2,514.9 363.5,514.9 363.5,514.9 363.5,514.9 363.5,509.6 363.5,509.6 363.5,509.6 381.2,509.6 381.2,509.6 381.2,509.6 381.2,466.3 381.2,466.3 381.2,466.3 363.5,466.3 363.5,466.3 363.5,466.3 363.5,461 363.5,461 363.5,461 381.2,461 381.2,461 381.2,461 381.2,417.6 381.2,417.6 381.2,417.6 363.5,417.6 363.5,417.6 363.5,417.6 363.5,412.4 363.5,412.4 363.5,412.4 381.2,412.4 381.2,412.4 381.2,412.4 381.2,369 381.2,369 381.2,369 363.5,369 363.5,369 363.5,369 363.5,363.7 363.5,363.7 363.5,363.7 381.2,363.7 381.2,363.7 381.2,363.7 381.2,320.4 381.2,320.4 381.2,320.4 363.5,320.4 363.5,320.4 363.5,320.4 363.5,315.1 363.5,315.1 363.5,315.1 381.2,315.1 381.2,315.1 381.2,315.1 381.2,271.7 381.2,271.7 381.2,271.7 363.5,271.7 363.5,271.7 363.5,271.7 363.5,266.5 363.5,266.5 363.5,266.5 381.2,266.5 381.2,266.5 381.2,266.5 381.2,223.1 381.2,223.1 381.2,223.1 363.5,223.1 363.5,223.1 363.5,223.1 363.5,217.8 363.5,217.8 363.5,217.8 381.2,217.8 381.2,217.8 381.2,217.8 381.2,174.5 381.2,174.5 381.2,174.5 363.5,174.5 363.5,174.5 363.5,174.5 363.5,169.2 363.5,169.2 363.5,169.2 381.2,169.2 381.2,169.2 381.2,169.2 381.2,156.9 381.2,156.9 Z " />
   <path id="Path6" stroke-width="0.3" stroke="#000000" stroke-opacity="1" fill="none" fill-opacity="0" stroke-linecap="butt" stroke-linejoin="mitre" d="M524.9,157 C509.5,156.6 496.9,130.2 496.5,97.3 496.5,97.3 490.9,97.3 490.9,97.3 490.9,97.3 490.9,733.1 490.9,733.1 490.9,733.1 496.2,733.1 496.2,733.1 496.3,699.6 509.1,672.5 524.8,672.5 524.8,672.5 524.9,672.5 524.9,672.5 524.9,672.5 524.9,660.8 524.9,660.8 524.9,660.8 507.3,660.8 507.3,660.8 507.3,660.8 507.3,655.6 507.3,655.6 507.3,655.6 524.9,655.6 524.9,655.6 524.9,655.6 524.9,612.2 524.9,612.2 524.9,612.2 507.3,612.2 507.3,612.2 507.3,612.2 507.3,606.9 507.3,606.9 507.3,606.9 524.9,606.9 524.9,606.9 524.9,606.9 524.9,563.5 524.9,563.5 524.9,563.5 507.3,563.5 507.3,563.5 507.3,563.5 507.3,558.3 507.3,558.3 507.3,558.3 524.9,558.3 524.9,558.3 524.9,558.3 524.9,514.9 524.9,514.9 524.9,514.9 507.3,514.9 507.3,514.9 507.3,514.9 507.3,509.6 507.3,509.6 507.3,509.6 524.9,509.6 524.9,509.6 524.9,509.6 524.9,466.3 524.9,466.3 524.9,466.3 507.3,466.3 507.3,466.3 507.3,466.3 507.3,461 507.3,461 507.3,461 524.9,461 524.9,461 524.9,461 524.9,417.6 524.9,417.6 524.9,417.6 507.3,417.6 507.3,417.6 507.3,417.6 507.3,412.4 507.3,412.4 507.3,412.4 524.9,412.4 524.9,412.4 524.9,412.4 524.9,369 524.9,369 524.9,369 507.3,369 507.3,369 507.3,369 507.3,363.7 507.3,363.7 507.3,363.7 524.9,363.7 524.9,363.7 524.9,363.7 524.9,320.4 524.9,320.4 524.9,320.4 507.3,320.4 507.3,320.4 507.3,320.4 507.3,315.1 507.3,315.1 507.3,315.1 524.9,315.1 524.9,315.1 524.9,315.1 524.9,271.7 524.9,271.7 524.9,271.7 507.3,271.7 507.3,271.7 507.3,271.7 507.3,266.5 507.3,266.5 507.3,266.5 524.9,266.5 524.9,266.5 524.9,266.5 524.9,223.1 524.9,223.1 524.9,223.1 507.3,223.1 507.3,223.1 507.3,223.1 507.3,217.8 507.3,217.8 507.3,217.8 524.9,217.8 524.9,217.8 524.9,217.8 524.9,174.5 524.9,174.5 524.9,174.5 507.3,174.5 507.3,174.5 507.3,174.5 507.3,169.2 507.3,169.2 507.3,169.2 524.9,169.2 524.9,169.2 524.9,169.2 524.9,157 524.9,157 Z " />
   <path id="Path7" stroke-width="0.3" stroke="#000000" stroke-opacity="1" fill="none" fill-opacity="0" stroke-linecap="butt" stroke-linejoin="mitre" d="M598.4,160.3 C582.9,160 570.4,133.6 570,100.6 570,100.6 564.4,100.6 564.4,100.6 564.4,100.6 564.4,736.5 564.4,736.5 564.4,736.5 569.6,736.5 569.6,736.5 569.7,702.9 582.5,675.8 598.3,675.8 598.3,675.8 598.4,675.8 598.4,675.8 598.4,675.8 598.4,664.2 598.4,664.2 598.4,664.2 580.7,664.2 580.7,664.2 580.7,664.2 580.7,658.9 580.7,658.9 580.7,658.9 598.4,658.9 598.4,658.9 598.4,658.9 598.4,615.5 598.4,615.5 598.4,615.5 580.7,615.5 580.7,615.5 580.7,615.5 580.7,610.3 580.7,610.3 580.7,610.3 598.4,610.3 598.4,610.3 598.4,610.3 598.4,566.9 598.4,566.9 598.4,566.9 580.7,566.9 580.7,566.9 580.7,566.9 580.7,561.6 580.7,561.6 580.7,561.6 598.4,561.6 598.4,561.6 598.4,561.6 598.4,518.2 598.4,518.2 598.4,518.2 580.7,518.2 580.7,518.2 580.7,518.2 580.7,513 580.7,513 580.7,513 598.4,513 598.4,513 598.4,513 598.4,469.6 598.4,469.6 598.4,469.6 580.7,469.6 580.7,469.6 580.7,469.6 580.7,464.4 580.7,464.4 580.7,464.4 598.4,464.4 598.4,464.4 598.4,464.4 598.4,421 598.4,421 598.4,421 580.7,421 580.7,421 580.7,421 580.7,415.7 580.7,415.7 580.7,415.7 598.4,415.7 598.4,415.7 598.4,415.7 598.4,372.3 598.4,372.3 598.4,372.3 580.7,372.3 580.7,372.3 580.7,372.3 580.7,367.1 580.7,367.1 580.7,367.1 598.4,367.1 598.4,367.1 598.4,367.1 598.4,323.7 598.4,323.7 598.4,323.7 580.7,323.7 580.7,323.7 580.7,323.7 580.7,318.5 580.7,318.5 580.7,318.5 598.4,318.5 598.4,318.5 598.4,318.5 598.4,275.1 598.4,275.1 598.4,275.1 580.7,275.1 580.7,275.1 580.7,275.1 580.7,269.8 580.7,269.8 580.7,269.8 598.4,269.8 598.4,269.8 598.4,269.8 598.4,226.4 598.4,226.4 598.4,226.4 580.7,226.4 580.7,226.4 580.7,226.4 580.7,221.2 580.7,221.2 580.7,221.2 598.4,221.2 598.4,221.2 598.4,221.2 598.4,177.8 598.4,177.8 598.4,177.8 580.7,177.8 580.7,177.8 580.7,177.8 580.7,172.5 580.7,172.5 580.7,172.5 598.4,172.5 598.4,172.5 598.4,172.5 598.4,160.3 598.4,160.3 Z " />
   <path id="Path8" stroke-width="0.3" stroke="#000000" stroke-opacity="1" fill="none" fill-opacity="0" stroke-linecap="butt" stroke-linejoin="mitre" d="M676.9,151.9 C661.5,151.6 648.9,125.2 648.6,92.2 648.6,92.2 643,92.2 643,92.2 643,92.2 643,728.1 643,728.1 643,728.1 648.2,728.1 648.2,728.1 648.3,694.5 661.1,667.5 676.8,667.5 676.9,667.5 676.9,667.5 676.9,667.5 676.9,667.5 676.9,655.8 676.9,655.8 676.9,655.8 659.3,655.8 659.3,655.8 659.3,655.8 659.3,650.5 659.3,650.5 659.3,650.5 676.9,650.5 676.9,650.5 676.9,650.5 676.9,607.2 676.9,607.2 676.9,607.2 659.3,607.2 659.3,607.2 659.3,607.2 659.3,601.9 659.3,601.9 659.3,601.9 676.9,601.9 676.9,601.9 676.9,601.9 676.9,558.5 676.9,558.5 676.9,558.5 659.3,558.5 659.3,558.5 659.3,558.5 659.3,553.3 659.3,553.3 659.3,553.3 676.9,553.3 676.9,553.3 676.9,553.3 676.9,509.9 676.9,509.9 676.9,509.9 659.3,509.9 659.3,509.9 659.3,509.9 659.3,504.6 659.3,504.6 659.3,504.6 676.9,504.6 676.9,504.6 676.9,504.6 676.9,461.2 676.9,461.2 676.9,461.2 659.3,461.2 659.3,461.2 659.3,461.2 659.3,456 659.3,456 659.3,456 676.9,456 676.9,456 676.9,456 676.9,412.6 676.9,412.6 676.9,412.6 659.3,412.6 659.3,412.6 659.3,412.6 659.3,407.4 659.3,407.4 659.3,407.4 676.9,407.4 676.9,407.4 676.9,407.4 676.9,364 676.9,364 676.9,364 659.3,364 659.3,364 659.3,364 659.3,358.7 659.3,358.7 659.3,358.7 676.9,358.7 676.9,358.7 676.9,358.7 676.9,315.3 676.9,315.3 676.9,315.3 659.3,315.3 659.3,315.3 659.3,315.3 659.3,310.1 659.3,310.1 659.3,310.1 676.9,310.1 676.9,310.1 676.9,310.1 676.9,266.7 676.9,266.7 676.9,266.7 659.3,266.7 659.3,266.7 659.3,266.7 659.3,261.4 659.3,261.4 659.3,261.4 676.9,261.4 676.9,261.4 676.9,261.4 676.9,218.1 676.9,218.1 676.9,218.1 659.3,218.1 659.3,218.1 659.3,218.1 659.3,212.8 659.3,212.8 659.3,212.8 676.9,212.8 676.9,212.8 676.9,212.8 676.9,169.4 676.9,169.4 676.9,169.4 659.3,169.4 659.3,169.4 659.3,169.4 659.3,164.2 659.3,164.2 659.3,164.2 676.9,164.2 676.9,164.2 676.9,164.2 676.9,151.9 676.9,151.9 Z " />
   <path id="Path9" stroke-width="0.3" stroke="#000000" stroke-opacity="1" fill="none" fill-opacity="0" stroke-linecap="butt" stroke-linejoin="mitre" d="M748.7,165.3 C733.2,165 720.7,138.6 720.3,105.6 720.3,105.6 714.7,105.6 714.7,105.6 714.7,105.6 714.7,741.5 714.7,741.5 714.7,741.5 719.9,741.5 719.9,741.5 720,707.9 732.8,680.9 748.6,680.8 748.6,680.8 748.6,680.9 748.7,680.9 748.7,680.9 748.7,669.2 748.7,669.2 748.7,669.2 731,669.2 731,669.2 731,669.2 731,663.9 731,663.9 731,663.9 748.7,663.9 748.7,663.9 748.7,663.9 748.7,620.5 748.7,620.5 748.7,620.5 731,620.5 731,620.5 731,620.5 731,615.3 731,615.3 731,615.3 748.7,615.3 748.7,615.3 748.7,615.3 748.7,571.9 748.7,571.9 748.7,571.9 731,571.9 731,571.9 731,571.9 731,566.7 731,566.7 731,566.7 748.7,566.7 748.7,566.7 748.7,566.7 748.7,523.3 748.7,523.3 748.7,523.3 731,523.3 731,523.3 731,523.3 731,518 731,518 731,518 748.7,518 748.7,518 748.7,518 748.7,474.6 748.7,474.6 748.7,474.6 731,474.6 731,474.6 731,474.6 731,469.4 731,469.4 731,469.4 748.7,469.4 748.7,469.4 748.7,469.4 748.7,426 748.7,426 748.7,426 731,426 731,426 731,426 731,420.7 731,420.7 731,420.7 748.7,420.7 748.7,420.7 748.7,420.7 748.7,377.4 748.7,377.4 748.7,377.4 731,377.4 731,377.4 731,377.4 731,372.1 731,372.1 731,372.1 748.7,372.1 748.7,372.1 748.7,372.1 748.7,328.7 748.7,328.7 748.7,328.7 731,328.7 731,328.7 731,328.7 731,323.5 731,323.5 731,323.5 748.7,323.5 748.7,323.5 748.7,323.5 748.7,280.1 748.7,280.1 748.7,280.1 731,280.1 731,280.1 731,280.1 731,274.8 731,274.8 731,274.8 748.7,274.8 748.7,274.8 748.7,274.8 748.7,231.5 748.7,231.5 748.7,231.5 731,231.5 731,231.5 731,231.5 731,226.2 731,226.2 731,226.2 748.7,226.2 748.7,226.2 748.7,226.2 748.7,182.8 748.7,182.8 748.7,182.8 731,182.8 731,182.8 731,182.8 731,177.6 731,177.6 731,177.6 748.7,177.6 748.7,177.6 748.7,177.6 748.7,165.3 748.7,165.3 Z " />
   <path id="Path10" stroke-width="0.3" stroke="#000000" stroke-opacity="1" fill="none" fill-opacity="0" stroke-linecap="butt" stroke-linejoin="mitre" d="M816.6,158.4 C801.1,158.1 788.5,131.7 788.2,98.7 788.2,98.7 782.6,98.7 782.6,98.7 782.6,98.7 782.6,734.6 782.6,734.6 782.6,734.6 787.8,734.6 787.8,734.6 787.9,701.1 800.7,674 816.4,674 816.5,674 816.5,674 816.6,674 816.6,674 816.6,662.3 816.6,662.3 816.6,662.3 798.9,662.3 798.9,662.3 798.9,662.3 798.9,657 798.9,657 798.9,657 816.6,657 816.6,657 816.6,657 816.6,613.7 816.6,613.7 816.6,613.7 798.9,613.7 798.9,613.7 798.9,613.7 798.9,608.4 798.9,608.4 798.9,608.4 816.6,608.4 816.6,608.4 816.6,608.4 816.6,565 816.6,565 816.6,565 798.9,565 798.9,565 798.9,565 798.9,559.8 798.9,559.8 798.9,559.8 816.6,559.8 816.6,559.8 816.6,559.8 816.6,516.4 816.6,516.4 816.6,516.4 798.9,516.4 798.9,516.4 798.9,516.4 798.9,511.1 798.9,511.1 798.9,511.1 816.6,511.1 816.6,511.1 816.6,511.1 816.6,467.8 816.6,467.8 816.6,467.8 798.9,467.8 798.9,467.8 798.9,467.8 798.9,462.5 798.9,462.5 798.9,462.5 816.6,462.5 816.6,462.5 816.6,462.5 816.6,419.1 816.6,419.1 816.6,419.1 798.9,419.1 798.9,419.1 798.9,419.1 798.9,413.9 798.9,413.9 798.9,413.9 816.6,413.9 816.6,413.9 816.6,413.9 816.6,370.5 816.6,370.5 816.6,370.5 798.9,370.5 798.9,370.5 798.9,370.5 798.9,365.2 798.9,365.2 798.9,365.2 816.6,365.2 816.6,365.2 816.6,365.2 816.6,321.8 816.6,321.8 816.6,321.8 798.9,321.8 798.9,321.8 798.9,321.8 798.9,316.6 798.9,316.6 798.9,316.6 816.6,316.6 816.6,316.6 816.6,316.6 816.6,273.2 816.6,273.2 816.6,273.2 798.9,273.2 798.9,273.2 798.9,273.2 798.9,268 798.9,268 798.9,268 816.6,268 816.6,268 816.6,268 816.6,224.6 816.6,224.6 816.6,224.6 798.9,224.6 798.9,224.6 798.9,224.6 798.9,219.3 798.9,219.3 798.9,219.3 816.6,219.3 816.6,219.3 816.6,219.3 816.6,175.9 816.6,175.9 816.6,175.9 798.9,175.9 798.9,175.9 798.9,175.9 798.9,170.7 798.9,170.7 798.9,170.7 816.6,170.7 816.6,170.7 816.6,170.7 816.6,158.4 816.6,158.4 Z " />
</svg>
